<?xml version="1.0" encoding="UTF-8"?>
<svg xmlns="http://www.w3.org/2000/svg" viewBox="0 0 760 420" role="img" aria-label="Average Topos scores by library: requests scores 46 simple, 90 secure, and 69 composable; numpy scores 41, 90, and 26; pandas scores 35, 98, and 15."><g><line x1="118" y1="253" x2="642" y2="253" stroke="#1e1a14" stroke-width="1"></line><text x="96" y="257" text-anchor="end" fill="#9a9488" font-size="9.5" font-family="&quot;Avenir Next&quot;, &quot;Helvetica Neue&quot;, sans-serif">25</text></g><g><line x1="118" y1="200" x2="642" y2="200" stroke="#1e1a14" stroke-width="1"></line><text x="96" y="204" text-anchor="end" fill="#9a9488" font-size="9.5" font-family="&quot;Avenir Next&quot;, &quot;Helvetica Neue&quot;, sans-serif">50</text></g><g><line x1="118" y1="147" x2="642" y2="147" stroke="#1e1a14" stroke-width="1"></line><text x="96" y="151" text-anchor="end" fill="#9a9488" font-size="9.5" font-family="&quot;Avenir Next&quot;, &quot;Helvetica Neue&quot;, sans-serif">75</text></g><g><line x1="118" y1="94" x2="642" y2="94" stroke="#1e1a14" stroke-width="1"></line><text x="96" y="98" text-anchor="end" fill="#9a9488" font-size="9.5" font-family="&quot;Avenir Next&quot;, &quot;Helvetica Neue&quot;, sans-serif">100</text></g><g><line x1="178" y1="94" x2="178" y2="306" stroke="#473f33" stroke-width="1.1"></line><circle cx="178" cy="94" r="3" fill="#5aa6d8"></circle><text x="178" y="336" text-anchor="middle" fill="#e8e2d6" font-size="14" font-family="&quot;Iowan Old Style&quot;, &quot;Palatino Linotype&quot;, &quot;Book Antiqua&quot;, Georgia, serif">Simple</text></g><g><line x1="380" y1="94" x2="380" y2="306" stroke="#473f33" stroke-width="1.1"></line><circle cx="380" cy="94" r="3" fill="#e07a7a"></circle><text x="380" y="336" text-anchor="middle" fill="#e8e2d6" font-size="14" font-family="&quot;Iowan Old Style&quot;, &quot;Palatino Linotype&quot;, &quot;Book Antiqua&quot;, Georgia, serif">Secure</text></g><g><line x1="582" y1="94" x2="582" y2="306" stroke="#473f33" stroke-width="1.1"></line><circle cx="582" cy="94" r="3" fill="#3fae8f"></circle><text x="582" y="336" text-anchor="middle" fill="#e8e2d6" font-size="14" font-family="&quot;Iowan Old Style&quot;, &quot;Palatino Linotype&quot;, &quot;Book Antiqua&quot;, Georgia, serif">Composable</text></g><path d="M 178 208.48 C 246 208.48, 308 115.19999999999999, 380 115.19999999999999 C 452 115.19999999999999, 514 159.72, 582 159.72" fill="none" stroke="#9aa7b8" stroke-width="1.25" opacity="0.42" stroke-linecap="round"></path><path d="M 178 219.07999999999998 C 246 219.07999999999998, 308 115.19999999999999, 380 115.19999999999999 C 452 115.19999999999999, 514 250.88, 582 250.88" fill="none" stroke="#7e8fa3" stroke-width="1.25" opacity="0.42" stroke-linecap="round"></path><path d="M 178 231.8 C 246 231.8, 308 98.24000000000001, 380 98.24000000000001 C 452 98.24000000000001, 514 274.2, 582 274.2" fill="none" stroke="#b09ac8" stroke-width="1.25" opacity="0.42" stroke-linecap="round"></path><g><circle cx="178" cy="208.48" r="4.8" fill="#9aa7b8" stroke="#5aa6d8" stroke-width="1.2"></circle><text x="187" y="212.48" fill="#b4ac9e" font-size="9.5" font-family="&quot;Avenir Next&quot;, &quot;Helvetica Neue&quot;, sans-serif">46</text></g><g><circle cx="380" cy="115.19999999999999" r="5.3" fill="#9aa7b8" stroke="#e07a7a" stroke-width="1.2"></circle><text x="389" y="119.19999999999999" fill="#b4ac9e" font-size="9.5" font-family="&quot;Avenir Next&quot;, &quot;Helvetica Neue&quot;, sans-serif">90</text></g><g><circle cx="582" cy="159.72" r="4.8" fill="#9aa7b8" stroke="#3fae8f" stroke-width="1.2"></circle><text x="591" y="163.72" fill="#b4ac9e" font-size="9.5" font-family="&quot;Avenir Next&quot;, &quot;Helvetica Neue&quot;, sans-serif">69</text></g><g><circle cx="178" cy="219.07999999999998" r="4.8" fill="#7e8fa3" stroke="#5aa6d8" stroke-width="1.2"></circle><text x="187" y="223.07999999999998" fill="#b4ac9e" font-size="9.5" font-family="&quot;Avenir Next&quot;, &quot;Helvetica Neue&quot;, sans-serif">41</text></g><g><circle cx="380" cy="115.19999999999999" r="5.3" fill="#7e8fa3" stroke="#e07a7a" stroke-width="1.2"></circle><text x="389" y="119.19999999999999" fill="#b4ac9e" font-size="9.5" font-family="&quot;Avenir Next&quot;, &quot;Helvetica Neue&quot;, sans-serif">90</text></g><g><circle cx="582" cy="250.88" r="4.8" fill="#7e8fa3" stroke="#3fae8f" stroke-width="1.2"></circle><text x="591" y="254.88" fill="#b4ac9e" font-size="9.5" font-family="&quot;Avenir Next&quot;, &quot;Helvetica Neue&quot;, sans-serif">26</text></g><g><circle cx="178" cy="231.8" r="4.8" fill="#b09ac8" stroke="#5aa6d8" stroke-width="1.2"></circle><text x="187" y="235.8" fill="#b4ac9e" font-size="9.5" font-family="&quot;Avenir Next&quot;, &quot;Helvetica Neue&quot;, sans-serif">35</text></g><g><circle cx="380" cy="98.24000000000001" r="5.3" fill="#b09ac8" stroke="#e07a7a" stroke-width="1.2"></circle><text x="389" y="102.24000000000001" fill="#b4ac9e" font-size="9.5" font-family="&quot;Avenir Next&quot;, &quot;Helvetica Neue&quot;, sans-serif">98</text></g><g><circle cx="582" cy="274.2" r="4.8" fill="#b09ac8" stroke="#3fae8f" stroke-width="1.2"></circle><text x="591" y="278.2" fill="#b4ac9e" font-size="9.5" font-family="&quot;Avenir Next&quot;, &quot;Helvetica Neue&quot;, sans-serif">15</text></g><text x="382" y="382" text-anchor="middle" fill="#9a9488" font-size="10" font-family="&quot;Avenir Next&quot;, &quot;Helvetica Neue&quot;, sans-serif">score, 0 to 100; exact values remain in the table above</text><g transform="translate(220 54)"><g transform="translate(0 0)"><circle cx="0" cy="0" r="4.5" fill="#9aa7b8"></circle><text x="13" y="4" fill="#b4ac9e" font-size="10.5" font-family="&quot;Avenir Next&quot;, &quot;Helvetica Neue&quot;, sans-serif">requests</text></g><g transform="translate(118 0)"><circle cx="0" cy="0" r="4.5" fill="#7e8fa3"></circle><text x="13" y="4" fill="#b4ac9e" font-size="10.5" font-family="&quot;Avenir Next&quot;, &quot;Helvetica Neue&quot;, sans-serif">numpy</text></g><g transform="translate(236 0)"><circle cx="0" cy="0" r="4.5" fill="#b09ac8"></circle><text x="13" y="4" fill="#b4ac9e" font-size="10.5" font-family="&quot;Avenir Next&quot;, &quot;Helvetica Neue&quot;, sans-serif">pandas</text></g></g></svg>
