<?xml version="1.0" encoding="UTF-8"?>
<svg xmlns="http://www.w3.org/2000/svg" viewBox="0 0 1040 530" role="img" aria-label="Topos methods figure showing AST, CFG, PDG, and MDG graph lenses glued over the same source-coordinate base to form one unified code property graph."><defs><marker id="topos-glue-arrow" markerWidth="8" markerHeight="8" refX="6.5" refY="3.5" orient="auto"><path d="M 0 0 L 7 3.5 L 0 7 z" fill="#d8d0c3"></path></marker><marker id="topos-orange-arrow" markerWidth="8" markerHeight="8" refX="6.5" refY="3.5" orient="auto"><path d="M 0 0 L 7 3.5 L 0 7 z" fill="#ff9b22"></path></marker></defs><path d="M 96 48 L 96 36 L 642 36 L 642 48" fill="none" stroke="#28231d" stroke-width="1"></path><text x="369" y="24" text-anchor="middle" fill="#28231d" font-size="15" font-family="&quot;Iowan Old Style&quot;, &quot;Palatino Linotype&quot;, &quot;Book Antiqua&quot;, Georgia, serif">graph lenses glued over source coordinates</text><path d="M 752 48 L 752 36 L 962 36 L 962 48" fill="none" stroke="#28231d" stroke-width="1"></path><text x="857" y="24" text-anchor="middle" fill="#28231d" font-size="15" font-family="&quot;Iowan Old Style&quot;, &quot;Palatino Linotype&quot;, &quot;Book Antiqua&quot;, Georgia, serif">unified code space</text><path d="M 96 92 L 602 92 L 642 134 L 136 134 Z" fill="#fbf7ef" opacity="0.42" stroke="#eee7dc" stroke-width="1"></path><path d="M 96 158 L 602 158 L 642 200 L 136 200 Z" fill="none" opacity="1" stroke="#eee7dc" stroke-width="1"></path><path d="M 96 224 L 602 224 L 642 266 L 136 266 Z" fill="#fbf7ef" opacity="0.42" stroke="#eee7dc" stroke-width="1"></path><path d="M 96 290 L 602 290 L 642 332 L 136 332 Z" fill="none" opacity="1" stroke="#eee7dc" stroke-width="1"></path><g><line x1="170" y1="113" x2="170" y2="368" stroke="#ff9b22" stroke-width="0.8" stroke-dasharray="3 5" opacity="0.38"></line><g><line x1="170" y1="368" x2="170" y2="398" stroke="#d8d0c3" stroke-width="1"></line><circle cx="170" cy="368" r="3.2" fill="#ff9b22"></circle><text x="170" y="418" text-anchor="middle" fill="#8b857d" font-size="8.5" font-family="&quot;Avenir Next&quot;, &quot;Helvetica Neue&quot;, sans-serif">fn</text></g></g><g><line x1="250" y1="113" x2="250" y2="368" stroke="#ff9b22" stroke-width="0.8" stroke-dasharray="3 5" opacity="0.38"></line><g><line x1="250" y1="368" x2="250" y2="398" stroke="#d8d0c3" stroke-width="1"></line><circle cx="250" cy="368" r="3.2" fill="#ff9b22"></circle><text x="250" y="418" text-anchor="middle" fill="#8b857d" font-size="8.5" font-family="&quot;Avenir Next&quot;, &quot;Helvetica Neue&quot;, sans-serif">if</text></g></g><g><line x1="340" y1="113" x2="340" y2="368" stroke="#ff9b22" stroke-width="0.8" stroke-dasharray="3 5" opacity="0.38"></line><g><line x1="340" y1="368" x2="340" y2="398" stroke="#d8d0c3" stroke-width="1"></line><circle cx="340" cy="368" r="3.2" fill="#ff9b22"></circle><text x="340" y="418" text-anchor="middle" fill="#8b857d" font-size="8.5" font-family="&quot;Avenir Next&quot;, &quot;Helvetica Neue&quot;, sans-serif">read</text></g></g><g><line x1="450" y1="113" x2="450" y2="368" stroke="#ff9b22" stroke-width="0.8" stroke-dasharray="3 5" opacity="0.38"></line><g><line x1="450" y1="368" x2="450" y2="398" stroke="#d8d0c3" stroke-width="1"></line><circle cx="450" cy="368" r="3.2" fill="#ff9b22"></circle><text x="450" y="418" text-anchor="middle" fill="#8b857d" font-size="8.5" font-family="&quot;Avenir Next&quot;, &quot;Helvetica Neue&quot;, sans-serif">call</text></g></g><g><line x1="555" y1="113" x2="555" y2="368" stroke="#ff9b22" stroke-width="0.8" stroke-dasharray="3 5" opacity="0.38"></line><g><line x1="555" y1="368" x2="555" y2="398" stroke="#d8d0c3" stroke-width="1"></line><circle cx="555" cy="368" r="3.2" fill="#ff9b22"></circle><text x="555" y="418" text-anchor="middle" fill="#8b857d" font-size="8.5" font-family="&quot;Avenir Next&quot;, &quot;Helvetica Neue&quot;, sans-serif">write</text></g></g><g transform="translate(112 113)"><circle cx="0" cy="0" r="4.8" fill="#8b857d"></circle><text x="14" y="4" fill="#28231d" font-size="12" font-family="&quot;Iowan Old Style&quot;, &quot;Palatino Linotype&quot;, &quot;Book Antiqua&quot;, Georgia, serif">UAST</text><text x="14" y="18" fill="#8b857d" font-size="8.6" font-family="&quot;Avenir Next&quot;, &quot;Helvetica Neue&quot;, sans-serif" font-style="italic">syntax shape</text></g><line x1="170" y1="113" x2="250" y2="113" stroke="#8b857d" stroke-width="1.1" opacity="0.72"></line><line x1="250" y1="113" x2="340" y2="113" stroke="#8b857d" stroke-width="1.1" opacity="0.72"></line><line x1="250" y1="113" x2="450" y2="113" stroke="#8b857d" stroke-width="1.1" opacity="0.72"></line><line x1="450" y1="113" x2="555" y2="113" stroke="#8b857d" stroke-width="1.1" opacity="0.72"></line><circle cx="170" cy="113" r="4.2" fill="#8b857d"></circle><circle cx="250" cy="113" r="4.2" fill="#8b857d"></circle><circle cx="340" cy="113" r="4.2" fill="#8b857d"></circle><circle cx="450" cy="113" r="4.2" fill="#8b857d"></circle><circle cx="555" cy="113" r="4.2" fill="#8b857d"></circle><g transform="translate(112 179)"><circle cx="0" cy="0" r="4.8" fill="#2b7eb5"></circle><text x="14" y="4" fill="#28231d" font-size="12" font-family="&quot;Iowan Old Style&quot;, &quot;Palatino Linotype&quot;, &quot;Book Antiqua&quot;, Georgia, serif">CFG</text><text x="14" y="18" fill="#8b857d" font-size="8.6" font-family="&quot;Avenir Next&quot;, &quot;Helvetica Neue&quot;, sans-serif" font-style="italic">execution paths</text></g><path d="M 170 179 C 256 136, 340 190, 340 179" fill="none" stroke="#2b7eb5" stroke-width="2" opacity="0.62" stroke-linecap="round"></path><path d="M 250 179 C 358 132, 464 198, 555 179" fill="none" stroke="#2b7eb5" stroke-width="2" opacity="0.52" stroke-linecap="round"></path><circle cx="170" cy="179" r="4.2" fill="#2b7eb5"></circle><circle cx="250" cy="179" r="4.2" fill="#2b7eb5"></circle><circle cx="340" cy="179" r="4.2" fill="#2b7eb5"></circle><circle cx="555" cy="179" r="4.2" fill="#2b7eb5"></circle><g transform="translate(112 245)"><circle cx="0" cy="0" r="4.8" fill="#c94040"></circle><text x="14" y="4" fill="#28231d" font-size="12" font-family="&quot;Iowan Old Style&quot;, &quot;Palatino Linotype&quot;, &quot;Book Antiqua&quot;, Georgia, serif">PDG</text><text x="14" y="18" fill="#8b857d" font-size="8.6" font-family="&quot;Avenir Next&quot;, &quot;Helvetica Neue&quot;, sans-serif" font-style="italic">data + control</text></g><path d="M 340 245 C 378 204, 418 270, 450 245" fill="none" stroke="#c94040" stroke-width="2" stroke-dasharray="4 4" opacity="0.66" stroke-linecap="round"></path><path d="M 450 245 C 490 202, 528 270, 555 245" fill="none" stroke="#c94040" stroke-width="2" stroke-dasharray="4 4" opacity="0.6" stroke-linecap="round"></path><circle cx="250" cy="245" r="4.2" fill="#c94040"></circle><circle cx="340" cy="245" r="4.2" fill="#c94040"></circle><circle cx="450" cy="245" r="4.2" fill="#c94040"></circle><circle cx="555" cy="245" r="4.2" fill="#c94040"></circle><g transform="translate(112 311)"><circle cx="0" cy="0" r="4.8" fill="#126e5a"></circle><text x="14" y="4" fill="#28231d" font-size="12" font-family="&quot;Iowan Old Style&quot;, &quot;Palatino Linotype&quot;, &quot;Book Antiqua&quot;, Georgia, serif">MDG</text><text x="14" y="18" fill="#8b857d" font-size="8.6" font-family="&quot;Avenir Next&quot;, &quot;Helvetica Neue&quot;, sans-serif" font-style="italic">module coupling</text></g><path d="M 170 311 C 270 256, 420 350, 555 311" fill="none" stroke="#126e5a" stroke-width="2" opacity="0.58" stroke-linecap="round"></path><path d="M 340 311 C 404 272, 450 328, 450 311" fill="none" stroke="#126e5a" stroke-width="1.6" opacity="0.48" stroke-linecap="round"></path><circle cx="170" cy="311" r="4.2" fill="#126e5a"></circle><circle cx="340" cy="311" r="4.2" fill="#126e5a"></circle><circle cx="450" cy="311" r="4.2" fill="#126e5a"></circle><circle cx="555" cy="311" r="4.2" fill="#126e5a"></circle><g transform="translate(108 426)"><line x1="0" y1="0" x2="510" y2="0" stroke="#28231d" stroke-width="0.9" opacity="0.55"></line><text x="0" y="36" fill="#28231d" font-size="12" font-family="&quot;Iowan Old Style&quot;, &quot;Palatino Linotype&quot;, &quot;Book Antiqua&quot;, Georgia, serif">source-coordinate base</text><text x="172" y="36" fill="#8b857d" font-size="8.8" font-family="&quot;Avenir Next&quot;, &quot;Helvetica Neue&quot;, sans-serif" font-style="italic">every layer remains anchored to the same byte spans</text></g><path d="M 656 244 C 690.44 244, 703.56 244, 738 244" fill="none" stroke="#d8d0c3" stroke-width="1.1" marker-end="url(#topos-glue-arrow)"></path><text x="698" y="222" text-anchor="middle" fill="#8b857d" font-size="8.8" font-family="&quot;Avenir Next&quot;, &quot;Helvetica Neue&quot;, sans-serif" font-style="italic">amalgamate</text><g transform="translate(740 106)"><path d="M 0 0 L 246 0 L 246 286 L 0 286 Z" fill="none" stroke="#eee7dc" stroke-width="1"></path><text x="22" y="34" fill="#28231d" font-size="13" font-family="&quot;Iowan Old Style&quot;, &quot;Palatino Linotype&quot;, &quot;Book Antiqua&quot;, Georgia, serif">Code Property Graph</text><g transform="translate(0 2)"><path d="M 46 230 L 218 230" fill="none" stroke="#28231d" stroke-width="0.85" opacity="0.46"></path><g><line x1="58" y1="92" x2="58" y2="230" stroke="#ff9b22" stroke-width="0.75" stroke-dasharray="3 5" opacity="0.32"></line><circle cx="58" cy="230" r="2.8" fill="#ff9b22" opacity="0.8"></circle></g><g><line x1="116" y1="78" x2="116" y2="230" stroke="#ff9b22" stroke-width="0.75" stroke-dasharray="3 5" opacity="0.32"></line><circle cx="116" cy="230" r="2.8" fill="#ff9b22" opacity="0.8"></circle></g><g><line x1="88" y1="156" x2="88" y2="230" stroke="#ff9b22" stroke-width="0.75" stroke-dasharray="3 5" opacity="0.32"></line><circle cx="88" cy="230" r="2.8" fill="#ff9b22" opacity="0.8"></circle></g><g><line x1="158" y1="142" x2="158" y2="230" stroke="#ff9b22" stroke-width="0.75" stroke-dasharray="3 5" opacity="0.32"></line><circle cx="158" cy="230" r="2.8" fill="#ff9b22" opacity="0.8"></circle></g><g><line x1="208" y1="112" x2="208" y2="230" stroke="#ff9b22" stroke-width="0.75" stroke-dasharray="3 5" opacity="0.32"></line><circle cx="208" cy="230" r="2.8" fill="#ff9b22" opacity="0.8"></circle></g><line x1="58" y1="92" x2="116" y2="78" stroke="#8b857d" stroke-width="1.1" opacity="0.52"></line><line x1="116" y1="78" x2="88" y2="156" stroke="#8b857d" stroke-width="1.1" opacity="0.52"></line><line x1="116" y1="78" x2="158" y2="142" stroke="#8b857d" stroke-width="1.1" opacity="0.52"></line><line x1="158" y1="142" x2="208" y2="112" stroke="#8b857d" stroke-width="1.1" opacity="0.52"></line><path d="M 58 92 C 82 48, 128 44, 116 78 C 108 104, 134 118, 158 142 C 184 166, 220 146, 208 112" fill="none" stroke="#2b7eb5" stroke-width="2" opacity="0.58" stroke-linecap="round"></path><path d="M 88 156 C 106 116, 136 174, 158 142" fill="none" stroke="#c94040" stroke-width="2" stroke-dasharray="4 4" opacity="0.66" stroke-linecap="round"></path><path d="M 158 142 C 174 96, 198 154, 208 112" fill="none" stroke="#c94040" stroke-width="1.8" stroke-dasharray="4 4" opacity="0.58" stroke-linecap="round"></path><path d="M 58 92 C 84 206, 174 220, 208 112" fill="none" stroke="#126e5a" stroke-width="1.9" opacity="0.5" stroke-linecap="round"></path><path d="M 88 156 C 128 232, 176 208, 158 142" fill="none" stroke="#126e5a" stroke-width="1.4" opacity="0.38" stroke-linecap="round"></path><g><circle cx="58" cy="92" r="8.5" fill="#fbf7ef" stroke="#d8d0c3" stroke-width="0.8" opacity="0.95"></circle><circle cx="58" cy="92" r="5.4" fill="#fbf7ef" stroke="#ff9b22" stroke-width="1.15"></circle><circle cx="58" cy="92" r="2.4" fill="#ff9b22"></circle></g><g><circle cx="116" cy="78" r="8.5" fill="#fbf7ef" stroke="#d8d0c3" stroke-width="0.8" opacity="0.95"></circle><circle cx="116" cy="78" r="5.4" fill="#fbf7ef" stroke="#ff9b22" stroke-width="1.15"></circle><circle cx="116" cy="78" r="2.4" fill="#ff9b22"></circle></g><g><circle cx="88" cy="156" r="8.5" fill="#fbf7ef" stroke="#d8d0c3" stroke-width="0.8" opacity="0.95"></circle><circle cx="88" cy="156" r="5.4" fill="#fbf7ef" stroke="#ff9b22" stroke-width="1.15"></circle><circle cx="88" cy="156" r="2.4" fill="#ff9b22"></circle></g><g><circle cx="158" cy="142" r="8.5" fill="#fbf7ef" stroke="#d8d0c3" stroke-width="0.8" opacity="0.95"></circle><circle cx="158" cy="142" r="5.4" fill="#fbf7ef" stroke="#ff9b22" stroke-width="1.15"></circle><circle cx="158" cy="142" r="2.4" fill="#ff9b22"></circle></g><g><circle cx="208" cy="112" r="8.5" fill="#fbf7ef" stroke="#d8d0c3" stroke-width="0.8" opacity="0.95"></circle><circle cx="208" cy="112" r="5.4" fill="#fbf7ef" stroke="#ff9b22" stroke-width="1.15"></circle><circle cx="208" cy="112" r="2.4" fill="#ff9b22"></circle></g><path d="M 88 156 C 116 118, 134 118, 158 142 C 184 166, 220 146, 208 112" fill="none" stroke="#c94040" stroke-width="0.9" stroke-dasharray="1 5" opacity="0.9" stroke-linecap="round"></path></g><text x="22" y="260" fill="#28231d" font-size="12" font-family="&quot;Iowan Old Style&quot;, &quot;Palatino Linotype&quot;, &quot;Book Antiqua&quot;, Georgia, serif">amalgamated code space</text><text x="22" y="276" fill="#8b857d" font-size="8.8" font-family="&quot;Avenir Next&quot;, &quot;Helvetica Neue&quot;, sans-serif" font-style="italic">one vertex set carries every edge family</text></g><g transform="translate(180 498)"><line x1="0" y1="0" x2="24" y2="0" stroke="#8b857d" stroke-width="1.3"></line><text x="32" y="3.5" fill="#5d564d" font-size="9" font-family="&quot;Avenir Next&quot;, &quot;Helvetica Neue&quot;, sans-serif">syntax</text><line x1="92" y1="0" x2="116" y2="0" stroke="#2b7eb5" stroke-width="2" opacity="0.6"></line><text x="124" y="3.5" fill="#5d564d" font-size="9" font-family="&quot;Avenir Next&quot;, &quot;Helvetica Neue&quot;, sans-serif">control</text><line x1="196" y1="0" x2="220" y2="0" stroke="#c94040" stroke-width="2" stroke-dasharray="4 4" opacity="0.65"></line><text x="228" y="3.5" fill="#5d564d" font-size="9" font-family="&quot;Avenir Next&quot;, &quot;Helvetica Neue&quot;, sans-serif">dependence</text><line x1="322" y1="0" x2="346" y2="0" stroke="#126e5a" stroke-width="2" opacity="0.58"></line><text x="354" y="3.5" fill="#5d564d" font-size="9" font-family="&quot;Avenir Next&quot;, &quot;Helvetica Neue&quot;, sans-serif">modules</text><line x1="436" y1="0" x2="460" y2="0" stroke="#ff9b22" stroke-width="1.4" stroke-dasharray="3 5" opacity="0.58"></line><text x="468" y="3.5" fill="#5d564d" font-size="9" font-family="&quot;Avenir Next&quot;, &quot;Helvetica Neue&quot;, sans-serif">shared source span</text></g></svg>
