<?xml version="1.0" encoding="UTF-8"?>
<svg xmlns="http://www.w3.org/2000/svg" viewBox="0 0 760 390" role="img" aria-label="Medal mix by library: requests is 26 percent gold, 37 percent silver, 37 percent bronze, and 0 percent slop; numpy is 11, 42, 36, and 11; pandas is 4, 41, 52, and 3."><g><line x1="128" y1="302" x2="628" y2="302" stroke="#473f33" stroke-width="1"></line><text x="112" y="306" text-anchor="end" fill="#9a9488" font-size="10" font-family="&quot;Avenir Next&quot;, &quot;Helvetica Neue&quot;, sans-serif">0</text></g><g><line x1="128" y1="248" x2="628" y2="248" stroke="#1e1a14" stroke-width="1"></line><text x="112" y="252" text-anchor="end" fill="#9a9488" font-size="10" font-family="&quot;Avenir Next&quot;, &quot;Helvetica Neue&quot;, sans-serif">25</text></g><g><line x1="128" y1="194" x2="628" y2="194" stroke="#1e1a14" stroke-width="1"></line><text x="112" y="198" text-anchor="end" fill="#9a9488" font-size="10" font-family="&quot;Avenir Next&quot;, &quot;Helvetica Neue&quot;, sans-serif">50</text></g><g><line x1="128" y1="140" x2="628" y2="140" stroke="#1e1a14" stroke-width="1"></line><text x="112" y="144" text-anchor="end" fill="#9a9488" font-size="10" font-family="&quot;Avenir Next&quot;, &quot;Helvetica Neue&quot;, sans-serif">75</text></g><g><line x1="128" y1="86" x2="628" y2="86" stroke="#1e1a14" stroke-width="1"></line><text x="112" y="90" text-anchor="end" fill="#9a9488" font-size="10" font-family="&quot;Avenir Next&quot;, &quot;Helvetica Neue&quot;, sans-serif">100</text></g><g><g><rect x="198" y="245.84" width="72" height="56.160000000000004" fill="#d8b878" opacity="0.82"></rect><text x="234" y="277.92" text-anchor="middle" fill="#e8e2d6" font-size="10.5" font-family="&quot;Avenir Next&quot;, &quot;Helvetica Neue&quot;, sans-serif">26%</text></g><g><rect x="198" y="165.92000000000002" width="72" height="79.92" fill="#b5bcca" opacity="0.82"></rect><text x="234" y="209.88000000000002" text-anchor="middle" fill="#e8e2d6" font-size="10.5" font-family="&quot;Avenir Next&quot;, &quot;Helvetica Neue&quot;, sans-serif">37%</text></g><g><rect x="198" y="86.00000000000001" width="72" height="79.92" fill="#c08a5c" opacity="0.82"></rect><text x="234" y="129.96" text-anchor="middle" fill="#e8e2d6" font-size="10.5" font-family="&quot;Avenir Next&quot;, &quot;Helvetica Neue&quot;, sans-serif">37%</text></g><g></g><text x="234" y="330" text-anchor="middle" fill="#e8e2d6" font-size="14" font-family="&quot;Iowan Old Style&quot;, &quot;Palatino Linotype&quot;, &quot;Book Antiqua&quot;, Georgia, serif">requests</text></g><g><g><rect x="358" y="278.24" width="72" height="23.76" fill="#d8b878" opacity="0.82"></rect><text x="394" y="294.12" text-anchor="middle" fill="#e8e2d6" font-size="10.5" font-family="&quot;Avenir Next&quot;, &quot;Helvetica Neue&quot;, sans-serif">11%</text></g><g><rect x="358" y="187.52" width="72" height="90.72" fill="#b5bcca" opacity="0.82"></rect><text x="394" y="236.88" text-anchor="middle" fill="#e8e2d6" font-size="10.5" font-family="&quot;Avenir Next&quot;, &quot;Helvetica Neue&quot;, sans-serif">42%</text></g><g><rect x="358" y="109.76000000000002" width="72" height="77.75999999999999" fill="#c08a5c" opacity="0.82"></rect><text x="394" y="152.64000000000001" text-anchor="middle" fill="#e8e2d6" font-size="10.5" font-family="&quot;Avenir Next&quot;, &quot;Helvetica Neue&quot;, sans-serif">36%</text></g><g><rect x="358" y="86.00000000000001" width="72" height="23.76" fill="#cbd3dd" opacity="0.66"></rect><text x="394" y="101.88000000000001" text-anchor="middle" fill="#e8e2d6" font-size="10.5" font-family="&quot;Avenir Next&quot;, &quot;Helvetica Neue&quot;, sans-serif">11%</text></g><text x="394" y="330" text-anchor="middle" fill="#e8e2d6" font-size="14" font-family="&quot;Iowan Old Style&quot;, &quot;Palatino Linotype&quot;, &quot;Book Antiqua&quot;, Georgia, serif">numpy</text></g><g><g><rect x="518" y="293.36" width="72" height="8.64" fill="#d8b878" opacity="0.82"></rect></g><g><rect x="518" y="204.8" width="72" height="88.55999999999999" fill="#b5bcca" opacity="0.82"></rect><text x="554" y="253.08" text-anchor="middle" fill="#e8e2d6" font-size="10.5" font-family="&quot;Avenir Next&quot;, &quot;Helvetica Neue&quot;, sans-serif">41%</text></g><g><rect x="518" y="92.48" width="72" height="112.32000000000001" fill="#c08a5c" opacity="0.82"></rect><text x="554" y="152.64000000000001" text-anchor="middle" fill="#e8e2d6" font-size="10.5" font-family="&quot;Avenir Next&quot;, &quot;Helvetica Neue&quot;, sans-serif">52%</text></g><g><rect x="518" y="86" width="72" height="6.4799999999999995" fill="#cbd3dd" opacity="0.66"></rect></g><text x="554" y="330" text-anchor="middle" fill="#e8e2d6" font-size="14" font-family="&quot;Iowan Old Style&quot;, &quot;Palatino Linotype&quot;, &quot;Book Antiqua&quot;, Georgia, serif">pandas</text></g><g transform="translate(164 350)"><g transform="translate(0 0)"><path d="M -3 5 L -7 14 M 3 5 L 7 14" fill="none" stroke="#d8b878" stroke-width="1.1" opacity="0.62" stroke-linecap="round"></path><circle cx="0" cy="0" r="6.2" fill="none" stroke="#d8b878" stroke-width="1.2"></circle><circle cx="0" cy="0" r="2.5" fill="#d8b878" opacity="0.88"></circle><text x="15" y="4" fill="#b4ac9e" font-size="10.5" font-family="&quot;Avenir Next&quot;, &quot;Helvetica Neue&quot;, sans-serif">Gold</text></g><g transform="translate(112 0)"><path d="M -3 5 L -7 14 M 3 5 L 7 14" fill="none" stroke="#b5bcca" stroke-width="1.1" opacity="0.62" stroke-linecap="round"></path><circle cx="0" cy="0" r="6.2" fill="none" stroke="#b5bcca" stroke-width="1.2"></circle><circle cx="0" cy="0" r="2.5" fill="#b5bcca" opacity="0.88"></circle><text x="15" y="4" fill="#b4ac9e" font-size="10.5" font-family="&quot;Avenir Next&quot;, &quot;Helvetica Neue&quot;, sans-serif">Silver</text></g><g transform="translate(234 0)"><path d="M -3 5 L -7 14 M 3 5 L 7 14" fill="none" stroke="#c08a5c" stroke-width="1.1" opacity="0.62" stroke-linecap="round"></path><circle cx="0" cy="0" r="6.2" fill="none" stroke="#c08a5c" stroke-width="1.2"></circle><circle cx="0" cy="0" r="2.5" fill="#c08a5c" opacity="0.88"></circle><text x="15" y="4" fill="#b4ac9e" font-size="10.5" font-family="&quot;Avenir Next&quot;, &quot;Helvetica Neue&quot;, sans-serif">Bronze</text></g><g transform="translate(372 0)"><path d="M -3 5 L -7 14 M 3 5 L 7 14" fill="none" stroke="#cbd3dd" stroke-width="1.1" opacity="0.62" stroke-linecap="round"></path><circle cx="0" cy="0" r="6.2" fill="none" stroke="#cbd3dd" stroke-width="1.2"></circle><circle cx="0" cy="0" r="2.5" fill="#cbd3dd" opacity="0.88"></circle><text x="15" y="4" fill="#b4ac9e" font-size="10.5" font-family="&quot;Avenir Next&quot;, &quot;Helvetica Neue&quot;, sans-serif">Slop</text></g></g></svg>
