<?xml version="1.0" encoding="UTF-8"?>
<svg xmlns="http://www.w3.org/2000/svg" viewBox="0 0 760 330" role="img" aria-label="Median Topos scores for a typical file: requests has 61 simple, 100 secure, 95 composable; numpy has 45, 100, 0; pandas has 40, 100, 0."><path d="M 98 50 L 98 38 L 660 38 L 660 50" fill="none" stroke="#28231d" stroke-width="1"></path><text x="379" y="26" text-anchor="middle" fill="#28231d" font-size="15" font-family="&quot;Iowan Old Style&quot;, &quot;Palatino Linotype&quot;, &quot;Book Antiqua&quot;, Georgia, serif">typical file profile, median scores</text><g><text x="142" y="96" text-anchor="middle" fill="#3f4b5c" font-size="19" font-family="&quot;Iowan Old Style&quot;, &quot;Palatino Linotype&quot;, &quot;Book Antiqua&quot;, Georgia, serif">requests</text><path d="M 162.5 202 L 131.75 184.246479222419 L 131.75 219.753520777581 Z" fill="#fbf7ef" opacity="0.16" stroke="#eee7dc" stroke-width="1"></path><path d="M 183 202 L 121.50000000000001 166.492958444838 L 121.50000000000001 237.507041555162 Z" fill="#fbf7ef" opacity="0.16" stroke="#eee7dc" stroke-width="1"></path><path d="M 203.5 202 L 111.25000000000001 148.73943766725702 L 111.25000000000001 255.26056233274298 Z" fill="#fbf7ef" opacity="0.16" stroke="#eee7dc" stroke-width="1"></path><path d="M 224 202 L 101.00000000000003 130.98591688967602 L 101.00000000000003 273.014083110324 Z" fill="none" opacity="1" stroke="#d8d0c3" stroke-width="1"></path><line x1="142" y1="202" x2="224" y2="202" stroke="#eee7dc" stroke-width="1"></line><line x1="142" y1="202" x2="101.00000000000003" y2="130.98591688967602" stroke="#eee7dc" stroke-width="1"></line><line x1="142" y1="202" x2="101.00000000000003" y2="273.014083110324" stroke="#eee7dc" stroke-width="1"></line><path d="M 192.01999999999998 202 L 101.00000000000003 130.98591688967602 L 103.05000000000003 269.4633789548078 Z" fill="#3f4b5c" opacity="0.16" stroke="#3f4b5c" stroke-width="2" stroke-linejoin="round"></path><g><circle cx="192.01999999999998" cy="202" r="4.2" fill="#2b7eb5"></circle><text x="201.01999999999998" y="206" text-anchor="start" fill="#5d564d" font-size="10" font-family="&quot;Avenir Next&quot;, &quot;Helvetica Neue&quot;, sans-serif">61</text></g><g><circle cx="101.00000000000003" cy="130.98591688967602" r="4.2" fill="#c94040"></circle><text x="113.00000000000003" y="134.98591688967602" text-anchor="start" fill="#5d564d" font-size="10" font-family="&quot;Avenir Next&quot;, &quot;Helvetica Neue&quot;, sans-serif">100</text></g><g><circle cx="103.05000000000003" cy="269.4633789548078" r="4.2" fill="#126e5a"></circle><text x="94.05000000000003" y="285.4633789548078" text-anchor="middle" fill="#5d564d" font-size="10" font-family="&quot;Avenir Next&quot;, &quot;Helvetica Neue&quot;, sans-serif">95</text></g><text x="240" y="206" fill="#8b857d" font-size="10" font-family="&quot;Avenir Next&quot;, &quot;Helvetica Neue&quot;, sans-serif">Simple</text><text x="89" y="121.48000000000002" text-anchor="end" fill="#8b857d" font-size="10" font-family="&quot;Avenir Next&quot;, &quot;Helvetica Neue&quot;, sans-serif">Secure</text><text x="101" y="294.52" text-anchor="middle" fill="#8b857d" font-size="10" font-family="&quot;Avenir Next&quot;, &quot;Helvetica Neue&quot;, sans-serif">Composable</text></g><g><text x="380" y="96" text-anchor="middle" fill="#7e8fa3" font-size="19" font-family="&quot;Iowan Old Style&quot;, &quot;Palatino Linotype&quot;, &quot;Book Antiqua&quot;, Georgia, serif">numpy</text><path d="M 400.5 202 L 369.75 184.246479222419 L 369.75 219.753520777581 Z" fill="#fbf7ef" opacity="0.16" stroke="#eee7dc" stroke-width="1"></path><path d="M 421 202 L 359.5 166.492958444838 L 359.5 237.507041555162 Z" fill="#fbf7ef" opacity="0.16" stroke="#eee7dc" stroke-width="1"></path><path d="M 441.5 202 L 349.25 148.73943766725702 L 349.25 255.26056233274298 Z" fill="#fbf7ef" opacity="0.16" stroke="#eee7dc" stroke-width="1"></path><path d="M 462 202 L 339 130.98591688967602 L 339 273.014083110324 Z" fill="none" opacity="1" stroke="#d8d0c3" stroke-width="1"></path><line x1="380" y1="202" x2="462" y2="202" stroke="#eee7dc" stroke-width="1"></line><line x1="380" y1="202" x2="339" y2="130.98591688967602" stroke="#eee7dc" stroke-width="1"></line><line x1="380" y1="202" x2="339" y2="273.014083110324" stroke="#eee7dc" stroke-width="1"></line><path d="M 416.9 202 L 339 130.98591688967602 L 380 202 Z" fill="#7e8fa3" opacity="0.16" stroke="#7e8fa3" stroke-width="2" stroke-linejoin="round"></path><g><circle cx="416.9" cy="202" r="4.2" fill="#2b7eb5"></circle><text x="425.9" y="206" text-anchor="start" fill="#5d564d" font-size="10" font-family="&quot;Avenir Next&quot;, &quot;Helvetica Neue&quot;, sans-serif">45</text></g><g><circle cx="339" cy="130.98591688967602" r="4.2" fill="#c94040"></circle><text x="351" y="134.98591688967602" text-anchor="start" fill="#5d564d" font-size="10" font-family="&quot;Avenir Next&quot;, &quot;Helvetica Neue&quot;, sans-serif">100</text></g><g><circle cx="380" cy="202" r="4.2" fill="#126e5a"></circle><text x="371" y="218" text-anchor="middle" fill="#5d564d" font-size="10" font-family="&quot;Avenir Next&quot;, &quot;Helvetica Neue&quot;, sans-serif">0</text></g><text x="478" y="206" fill="#8b857d" font-size="10" font-family="&quot;Avenir Next&quot;, &quot;Helvetica Neue&quot;, sans-serif">Simple</text><text x="327" y="121.48000000000002" text-anchor="end" fill="#8b857d" font-size="10" font-family="&quot;Avenir Next&quot;, &quot;Helvetica Neue&quot;, sans-serif">Secure</text><text x="339" y="294.52" text-anchor="middle" fill="#8b857d" font-size="10" font-family="&quot;Avenir Next&quot;, &quot;Helvetica Neue&quot;, sans-serif">Composable</text></g><g><text x="618" y="96" text-anchor="middle" fill="#b09ac8" font-size="19" font-family="&quot;Iowan Old Style&quot;, &quot;Palatino Linotype&quot;, &quot;Book Antiqua&quot;, Georgia, serif">pandas</text><path d="M 638.5 202 L 607.75 184.246479222419 L 607.75 219.753520777581 Z" fill="#fbf7ef" opacity="0.16" stroke="#eee7dc" stroke-width="1"></path><path d="M 659 202 L 597.5 166.492958444838 L 597.5 237.507041555162 Z" fill="#fbf7ef" opacity="0.16" stroke="#eee7dc" stroke-width="1"></path><path d="M 679.5 202 L 587.25 148.73943766725702 L 587.25 255.26056233274298 Z" fill="#fbf7ef" opacity="0.16" stroke="#eee7dc" stroke-width="1"></path><path d="M 700 202 L 577 130.98591688967602 L 577 273.014083110324 Z" fill="none" opacity="1" stroke="#d8d0c3" stroke-width="1"></path><line x1="618" y1="202" x2="700" y2="202" stroke="#eee7dc" stroke-width="1"></line><line x1="618" y1="202" x2="577" y2="130.98591688967602" stroke="#eee7dc" stroke-width="1"></line><line x1="618" y1="202" x2="577" y2="273.014083110324" stroke="#eee7dc" stroke-width="1"></line><path d="M 650.8 202 L 577 130.98591688967602 L 618 202 Z" fill="#b09ac8" opacity="0.16" stroke="#b09ac8" stroke-width="2" stroke-linejoin="round"></path><g><circle cx="650.8" cy="202" r="4.2" fill="#2b7eb5"></circle><text x="659.8" y="206" text-anchor="start" fill="#5d564d" font-size="10" font-family="&quot;Avenir Next&quot;, &quot;Helvetica Neue&quot;, sans-serif">40</text></g><g><circle cx="577" cy="130.98591688967602" r="4.2" fill="#c94040"></circle><text x="589" y="134.98591688967602" text-anchor="start" fill="#5d564d" font-size="10" font-family="&quot;Avenir Next&quot;, &quot;Helvetica Neue&quot;, sans-serif">100</text></g><g><circle cx="618" cy="202" r="4.2" fill="#126e5a"></circle><text x="609" y="218" text-anchor="middle" fill="#5d564d" font-size="10" font-family="&quot;Avenir Next&quot;, &quot;Helvetica Neue&quot;, sans-serif">0</text></g><text x="716" y="206" fill="#8b857d" font-size="10" font-family="&quot;Avenir Next&quot;, &quot;Helvetica Neue&quot;, sans-serif">Simple</text><text x="565" y="121.48000000000002" text-anchor="end" fill="#8b857d" font-size="10" font-family="&quot;Avenir Next&quot;, &quot;Helvetica Neue&quot;, sans-serif">Secure</text><text x="577" y="294.52" text-anchor="middle" fill="#8b857d" font-size="10" font-family="&quot;Avenir Next&quot;, &quot;Helvetica Neue&quot;, sans-serif">Composable</text></g></svg>
