<?xml version="1.0" encoding="UTF-8" standalone="no"?>
<svg
   viewBox="0 0 240 240"
   role="img"
   aria-label="Topos"
   version="1.1"
   id="svg14"
   sodipodi:docname="topos-logo.svg"
   inkscape:version="1.4.3 (0d15f75, 2025-12-25)"
   width="240"
   height="240"
   xmlns:inkscape="http://www.inkscape.org/namespaces/inkscape"
   xmlns:sodipodi="http://sodipodi.sourceforge.net/DTD/sodipodi-0.dtd"
   xmlns="http://www.w3.org/2000/svg"
   xmlns:svg="http://www.w3.org/2000/svg"
   xmlns:rdf="http://www.w3.org/1999/02/22-rdf-syntax-ns#"
   xmlns:cc="http://creativecommons.org/ns#"
   xmlns:dc="http://purl.org/dc/elements/1.1/">
  <sodipodi:namedview
     id="namedview14"
     pagecolor="#ffffff"
     bordercolor="#000000"
     borderopacity="0.25"
     inkscape:showpageshadow="2"
     inkscape:pageopacity="0.0"
     inkscape:pagecheckerboard="0"
     inkscape:deskcolor="#d1d1d1"
     inkscape:zoom="1.8367984"
     inkscape:cx="345.43802"
     inkscape:cy="110.51839"
     inkscape:window-width="2316"
     inkscape:window-height="1387"
     inkscape:window-x="244"
     inkscape:window-y="25"
     inkscape:window-maximized="0"
     inkscape:current-layer="svg14" />
  <title
     id="title1">Topos</title>
  <defs
     id="defs1">
    <marker
       id="tw-head"
       viewBox="0 0 12 12"
       refX="11"
       refY="6"
       markerWidth="3.2"
       markerHeight="3.2"
       orient="auto"
       markerUnits="strokeWidth">
      <path
         d="M 1,1 11,6 1,11 Z"
         fill="#b65a22"
         id="path1" />
    </marker>
  </defs>
  <g
     fill="none"
     stroke="#141414"
     stroke-width="5"
     stroke-linecap="round"
     id="g5"
     transform="matrix(1.2109649,0,0,1.2109649,-24.948303,-35.047395)">
    <path
       d="m 48,64 36,32 36,34"
       id="path2" />
    <path
       d="M 120,64 84,96"
       id="path3" />
    <path
       d="m 192,64 -36,32 -36,34"
       id="path4" />
    <path
       d="m 120,64 36,32"
       id="path5" />
  </g>
  <g
     fill="none"
     stroke="#141414"
     stroke-width="12"
     stroke-linecap="round"
     id="g7"
     transform="matrix(1.2109649,0,0,1.2109649,-24.948303,-35.047395)">
    <path
       d="M 48,64 H 192"
       id="path6" />
    <path
       d="M 120,64 V 196"
       id="path7" />
  </g>
  <path
     d="M 120.36749,202.30172 C 69.506958,153.86312 81.616607,97.683842 130.05521,87.996132 166.38415,80.730349 176.88867,69.836426 205.30598,47.26024"
     fill="none"
     stroke="#b65a22"
     stroke-width="10.8987"
     stroke-linecap="round"
     marker-end="url(#tw-head)"
     id="path8"
     sodipodi:nodetypes="csc" />
  <g
     fill="#bdb7aa"
     stroke="#141414"
     stroke-width="3"
     id="g9"
     transform="matrix(1.2109649,0,0,1.2109649,-24.948303,-35.047395)">
    <circle
       cx="84"
       cy="96"
       r="7"
       id="circle8" />
    <circle
       cx="156"
       cy="96"
       r="7"
       id="circle9" />
  </g>
  <g
     fill="#bdb7aa"
     stroke="#141414"
     stroke-width="4"
     id="g14"
     transform="matrix(1.2109649,0,0,1.2109649,-24.948303,-35.047395)">
    <circle
       cx="48"
       cy="64"
       r="12"
       id="circle10" />
    <circle
       cx="120"
       cy="64"
       r="12"
       id="circle11" />
    <circle
       cx="192"
       cy="64"
       r="12"
       id="circle12" />
    <circle
       cx="120"
       cy="130"
       r="12"
       id="circle13" />
    <circle
       cx="120"
       cy="196"
       r="12"
       id="circle14" />
  </g>
  <metadata
     id="metadata14">
    <rdf:RDF>
      <cc:Work
         rdf:about="">
        <dc:title>Topos</dc:title>
      </cc:Work>
    </rdf:RDF>
  </metadata>
</svg>
